<svg width="16" height="16" viewBox="0 0 16 16" fill="none" xmlns="http://www.w3.org/2000/svg">
<path d="M8 0.197388C12.42 0.197388 16 3.77739 16 8.19739C15.9996 9.87359 15.4735 11.5075 14.4958 12.869C13.5182 14.2306 12.1381 15.2512 10.55 15.7874C10.15 15.8674 10 15.6174 10 15.4074C10 15.1374 10.01 14.2774 10.01 13.2074C10.01 12.4574 9.76 11.9774 9.47 11.7274C11.25 11.5274 13.12 10.8474 13.12 7.77739C13.12 6.89739 12.81 6.18739 12.3 5.62739C12.38 5.42739 12.66 4.60739 12.22 3.50739C12.22 3.50739 11.55 3.28739 10.02 4.32739C9.38 4.14739 8.7 4.05739 8.02 4.05739C7.34 4.05739 6.66 4.14739 6.02 4.32739C4.49 3.29739 3.82 3.50739 3.82 3.50739C3.38 4.60739 3.66 5.42739 3.74 5.62739C3.23 6.18739 2.92 6.90739 2.92 7.77739C2.92 10.8374 4.78 11.5274 6.56 11.7274C6.33 11.9274 6.12 12.2774 6.05 12.7974C5.59 13.0074 4.44 13.3474 3.72 12.1374C3.57 11.8974 3.12 11.3074 2.49 11.3174C1.82 11.3274 2.22 11.6974 2.5 11.8474C2.84 12.0374 3.23 12.7474 3.32 12.9774C3.48 13.4274 4 14.2874 6.01 13.9174C6.01 14.5874 6.02 15.2174 6.02 15.4074C6.02 15.6174 5.87 15.8574 5.47 15.7874C3.87664 15.257 2.49073 14.2384 1.50889 12.876C0.527047 11.5137 -0.000880479 9.8767 1.10231e-06 8.19739C1.10231e-06 3.77739 3.58 0.197388 8 0.197388Z" fill="#8B949E"/>
</svg>
