<svg width="12" height="13" viewBox="0 0 12 13" fill="none" xmlns="http://www.w3.org/2000/svg">
<path d="M1.09444e-06 2.40476C1.09444e-06 1.89959 0.197545 1.4151 0.549176 1.05789C0.900806 0.70068 1.37772 0.5 1.875 0.5L8.4375 0.5C8.58668 0.5 8.72976 0.560204 8.83525 0.667368C8.94074 0.774531 9 0.919876 9 1.07143V10.5952C9 10.7468 8.94074 10.8921 8.83525 10.9993C8.72976 11.1065 8.58668 11.1667 8.4375 11.1667H6.5625C6.41332 11.1667 6.27024 11.1065 6.16475 10.9993C6.05926 10.8921 6 10.7468 6 10.5952C6 10.4437 6.05926 10.2983 6.16475 10.1912C6.27024 10.084 6.41332 10.0238 6.5625 10.0238H7.875V8.5H1.875C1.72731 8.50002 1.58292 8.54434 1.45992 8.62739C1.33693 8.71045 1.24081 8.82854 1.18362 8.96687C1.12643 9.1052 1.11072 9.2576 1.13845 9.40496C1.16618 9.55233 1.23612 9.68809 1.3395 9.79524C1.39121 9.84887 1.43201 9.91232 1.45958 9.98197C1.48715 10.0516 1.50095 10.1261 1.50018 10.2012C1.49942 10.2762 1.4841 10.3504 1.45512 10.4195C1.42613 10.4885 1.38404 10.5511 1.33125 10.6036C1.27846 10.6561 1.216 10.6976 1.14744 10.7256C1.07888 10.7536 1.00556 10.7676 0.931667 10.7669C0.857775 10.7661 0.784757 10.7505 0.716783 10.7211C0.648809 10.6916 0.587209 10.6489 0.535501 10.5952C0.191785 10.2393 -0.000529359 9.76049 1.09444e-06 9.2619V2.40476ZM7.875 1.64286H1.875C1.67609 1.64286 1.48532 1.72313 1.34467 1.86601C1.20402 2.0089 1.125 2.20269 1.125 2.40476V7.51562C1.36151 7.41063 1.6169 7.35666 1.875 7.35714H7.875V1.64286ZM2.25 9.83333C2.25 9.78282 2.26975 9.73437 2.30492 9.69865C2.34008 9.66292 2.38777 9.64286 2.4375 9.64286H5.0625C5.11223 9.64286 5.15992 9.66292 5.19508 9.69865C5.23025 9.73437 5.25 9.78282 5.25 9.83333V12.3095C5.25 12.3449 5.2403 12.3796 5.222 12.4097C5.20369 12.4398 5.1775 12.4641 5.14635 12.4799C5.11521 12.4957 5.08034 12.5024 5.04566 12.4992C5.01098 12.4961 4.97786 12.4831 4.95 12.4619L3.8625 11.6337C3.83009 11.6089 3.7906 11.5954 3.75 11.5954C3.7094 11.5954 3.66991 11.6089 3.6375 11.6337L2.55 12.4619C2.52214 12.4831 2.48902 12.4961 2.45434 12.4992C2.41966 12.5024 2.38479 12.4957 2.35365 12.4799C2.3225 12.4641 2.29631 12.4398 2.278 12.4097C2.2597 12.3796 2.25 12.3449 2.25 12.3095V9.83333Z" fill="#3D444D"/>
</svg>
