<svg width="14" height="14" viewBox="0 0 14 14" fill="none" xmlns="http://www.w3.org/2000/svg">
<path d="M12.12 0.280029H1.88003C0.996829 0.280029 0.280029 0.996829 0.280029 1.88003V12.12C0.280029 13.0032 0.996829 13.72 1.88003 13.72H12.12C13.0032 13.72 13.72 13.0032 13.72 12.12V1.88003C13.72 0.996829 13.0032 0.280029 12.12 0.280029ZM4.44003 5.40003V11.48H2.52003V5.40003H4.44003ZM2.52003 3.63043C2.52003 3.18243 2.90403 2.84003 3.48003 2.84003C4.05603 2.84003 4.41763 3.18243 4.44003 3.63043C4.44003 4.07843 4.08163 4.44003 3.48003 4.44003C2.90403 4.44003 2.52003 4.07843 2.52003 3.63043ZM11.48 11.48H9.56003C9.56003 11.48 9.56003 8.51683 9.56003 8.28003C9.56003 7.64003 9.24003 7.00003 8.44003 6.98723H8.41443C7.64003 6.98723 7.32003 7.64643 7.32003 8.28003C7.32003 8.57123 7.32003 11.48 7.32003 11.48H5.40003V5.40003H7.32003V6.21923C7.32003 6.21923 7.93763 5.40003 9.17923 5.40003C10.4496 5.40003 11.48 6.27363 11.48 8.04323V11.48Z" fill="#8B949E"/>
</svg>
