<svg width="12" height="13" viewBox="0 0 12 13" fill="none" xmlns="http://www.w3.org/2000/svg">
<path d="M2.0625 11C1.7144 11 1.38056 10.8617 1.13442 10.6156C0.888281 10.3694 0.75 10.0356 0.75 9.6875V7.8125C0.75 7.66332 0.809263 7.52024 0.914752 7.41475C1.02024 7.30926 1.16332 7.25 1.3125 7.25C1.46168 7.25 1.60476 7.30926 1.71025 7.41475C1.81574 7.52024 1.875 7.66332 1.875 7.8125V9.6875C1.875 9.791 1.959 9.875 2.0625 9.875H9.9375C9.98723 9.875 10.0349 9.85525 10.0701 9.82008C10.1052 9.78492 10.125 9.73723 10.125 9.6875V7.8125C10.125 7.66332 10.1843 7.52024 10.2898 7.41475C10.3952 7.30926 10.5383 7.25 10.6875 7.25C10.8367 7.25 10.9798 7.30926 11.0852 7.41475C11.1907 7.52024 11.25 7.66332 11.25 7.8125V9.6875C11.25 10.0356 11.1117 10.3694 10.8656 10.6156C10.6194 10.8617 10.2856 11 9.9375 11H2.0625Z" fill="#3D444D"/>
<path d="M5.43752 6.26675V2C5.43752 1.85082 5.49678 1.70774 5.60227 1.60225C5.70776 1.49676 5.85083 1.4375 6.00002 1.4375C6.1492 1.4375 6.29227 1.49676 6.39776 1.60225C6.50325 1.70774 6.56252 1.85082 6.56252 2V6.26675L8.04002 4.79C8.09222 4.7378 8.15419 4.69639 8.22239 4.66814C8.29059 4.63989 8.36369 4.62535 8.43752 4.62535C8.51134 4.62535 8.58444 4.63989 8.65264 4.66814C8.72084 4.69639 8.78282 4.7378 8.83502 4.79C8.88722 4.8422 8.92862 4.90417 8.95687 4.97237C8.98513 5.04058 8.99967 5.11368 8.99967 5.1875C8.99967 5.26132 8.98513 5.33442 8.95687 5.40263C8.92862 5.47083 8.88722 5.5328 8.83502 5.585L6.39752 8.0225C6.34534 8.07475 6.28338 8.1162 6.21517 8.14448C6.14697 8.17276 6.07385 8.18732 6.00002 8.18732C5.92618 8.18732 5.85307 8.17276 5.78486 8.14448C5.71665 8.1162 5.65469 8.07475 5.60252 8.0225L3.16502 5.585C3.11282 5.5328 3.07141 5.47083 3.04316 5.40263C3.01491 5.33442 3.00037 5.26132 3.00037 5.1875C3.00037 5.11368 3.01491 5.04058 3.04316 4.97237C3.07141 4.90417 3.11282 4.8422 3.16502 4.79C3.21722 4.7378 3.27919 4.69639 3.34739 4.66814C3.41559 4.63989 3.48869 4.62535 3.56252 4.62535C3.63634 4.62535 3.70944 4.63989 3.77764 4.66814C3.84584 4.69639 3.90782 4.7378 3.96002 4.79L5.43752 6.26675Z" fill="#3D444D"/>
</svg>
