<svg width="12" height="11" viewBox="0 0 12 11" fill="none" xmlns="http://www.w3.org/2000/svg">
<path d="M5.0625 0H6.9375C7.662 0 8.25 0.574933 8.25 1.28333V2.2H10.6875C11.412 2.2 12 2.77493 12 3.48333V9.71667C12 10.057 11.8617 10.3834 11.6156 10.6241C11.3694 10.8648 11.0356 11 10.6875 11H1.3125C0.964403 11 0.630564 10.8648 0.384422 10.6241C0.138281 10.3834 0 10.057 0 9.71667L0 3.48333C0 2.77493 0.588 2.2 1.3125 2.2H3.75V1.28333C3.75 0.574933 4.338 0 5.0625 0ZM2.625 6.96667C2.08863 6.96729 1.56501 6.80679 1.125 6.50687V9.71667C1.125 9.81787 1.209 9.9 1.3125 9.9H10.6875C10.7372 9.9 10.7849 9.88068 10.8201 9.8463C10.8552 9.81192 10.875 9.76529 10.875 9.71667V6.50687C10.435 6.80679 9.91137 6.96729 9.375 6.96667H2.625ZM1.3125 3.3C1.26277 3.3 1.21508 3.31932 1.17992 3.3537C1.14475 3.38808 1.125 3.43471 1.125 3.48333V4.4C1.125 4.78898 1.28304 5.16204 1.56434 5.43709C1.84564 5.71214 2.22718 5.86667 2.625 5.86667H9.375C9.77282 5.86667 10.1544 5.71214 10.4357 5.43709C10.717 5.16204 10.875 4.78898 10.875 4.4V3.48333C10.875 3.43471 10.8552 3.38808 10.8201 3.3537C10.7849 3.31932 10.7372 3.3 10.6875 3.3H1.3125ZM7.125 2.2V1.28333C7.125 1.23471 7.10525 1.18808 7.07008 1.1537C7.03492 1.11932 6.98723 1.1 6.9375 1.1H5.0625C5.01277 1.1 4.96508 1.11932 4.92992 1.1537C4.89475 1.18808 4.875 1.23471 4.875 1.28333V2.2H7.125Z" fill="#3D444D"/>
</svg>
