<svg width="14" height="14" viewBox="0 0 14 14" fill="none" xmlns="http://www.w3.org/2000/svg">
<path d="M1.88003 0.280029C0.996829 0.280029 0.280029 0.996829 0.280029 1.88003V12.12C0.280029 13.0032 0.996829 13.72 1.88003 13.72H12.12C13.0032 13.72 13.72 13.0032 13.72 12.12V1.88003C13.72 0.996829 13.0032 0.280029 12.12 0.280029H1.88003ZM3.80003 1.56003H4.56815L5.08003 2.84003L5.5919 1.56003H6.36003L5.40003 3.80003V5.08003H4.76003V3.7969C4.56803 3.2817 3.93123 1.88323 3.80003 1.56003ZM7.00003 2.52003C7.28483 2.52003 7.56645 2.60618 7.74565 2.82378C7.88325 2.98058 7.96003 3.23348 7.96003 3.56628V4.03378C7.96003 4.36658 7.8963 4.59698 7.7619 4.75378C7.5827 4.96818 7.28483 5.08003 7.00003 5.08003C6.71523 5.08003 6.42423 4.96818 6.24503 4.75378C6.10743 4.59698 6.04003 4.36658 6.04003 4.03378V3.5694C6.04003 3.2366 6.1136 2.98058 6.2544 2.82378C6.4336 2.60618 6.67683 2.52003 7.00003 2.52003ZM8.28003 2.52003H8.92003V4.44003C8.93603 4.52643 9.02863 4.56503 9.11503 4.56503C9.24623 4.56503 9.41283 4.4115 9.56003 4.2419V2.52003H10.2V5.08003H9.56003V4.63815C9.30083 4.89095 9.07998 5.08025 8.78878 5.07065C8.57758 5.06425 8.4305 4.98738 8.3569 4.83378C8.3121 4.74418 8.28003 4.59998 8.28003 4.38878V2.52003ZM7.00003 3.03815C6.95603 3.03815 6.9139 3.0478 6.87565 3.0644C6.8374 3.081 6.80278 3.1048 6.77378 3.1344C6.74478 3.164 6.72128 3.19915 6.70503 3.23815C6.68878 3.27715 6.68003 3.32023 6.68003 3.36503V4.26378C6.68003 4.35338 6.71578 4.4352 6.77378 4.4944C6.80278 4.524 6.8374 4.5478 6.87565 4.5644C6.9139 4.581 6.95603 4.59065 7.00003 4.59065C7.04403 4.59065 7.08615 4.581 7.1244 4.5644C7.23915 4.5146 7.32003 4.39818 7.32003 4.26378V3.36503C7.32003 3.18583 7.17603 3.03815 7.00003 3.03815ZM6.9969 6.04003H7.00315C7.00315 6.04003 9.15018 6.04013 10.5838 6.14253C10.7854 6.16493 11.2209 6.16815 11.6113 6.56815C11.9185 6.86895 12.0175 7.56003 12.0175 7.56003C12.0175 7.56003 12.12 8.0498 12.12 8.8594V9.61753C12.12 10.4271 12.0175 10.9169 12.0175 10.9169C12.0175 10.9169 11.9185 11.608 11.6113 11.9088C11.2209 12.3088 10.7854 12.312 10.5838 12.3344C9.15018 12.4368 7.00003 12.44 7.00003 12.44C7.00003 12.44 4.33735 12.4143 3.51815 12.3375C3.29095 12.2959 2.77918 12.3087 2.38878 11.9119C2.08158 11.6079 1.98253 10.9169 1.98253 10.9169C1.98253 10.9169 1.88003 10.4271 1.88003 9.61753V8.8594C1.88003 8.0498 1.98253 7.56003 1.98253 7.56003C1.98253 7.56003 2.08158 6.86895 2.38878 6.56815C2.77918 6.16815 3.21468 6.16493 3.41628 6.14253C4.84988 6.04013 6.9969 6.04003 6.9969 6.04003ZM2.84003 7.32003V7.95315H3.48003V11.16H4.12003V7.95315H4.76003V7.32003H2.84003ZM7.00003 7.32003V11.16H7.64003V10.76C7.84195 11.0099 8.10499 11.16 8.32003 11.16C8.56067 11.16 8.77064 11.0305 8.85128 10.7825C8.88936 10.6484 8.91747 10.5232 8.92003 10.24V9.36003C8.92003 9.04387 8.87722 8.80568 8.8369 8.67128C8.75626 8.42136 8.56099 8.28163 8.32003 8.28003C8.00643 8.27779 7.88003 8.44003 7.64003 8.72003V7.32003H7.00003ZM4.76003 8.28003V10.4194C4.76003 10.6504 4.79218 10.8055 4.83378 10.9069C4.90418 11.0714 5.04773 11.16 5.25253 11.16C5.48613 11.16 5.78723 10.9955 6.04003 10.7232V11.16H6.68003V8.28003H6.04003V10.2863C5.89923 10.4732 5.69428 10.6125 5.56628 10.6125C5.48308 10.6125 5.41603 10.5775 5.40003 10.4857V8.28003H4.76003ZM10.2094 8.28003C9.88684 8.28003 9.63493 8.38147 9.45253 8.57315C9.31813 8.71459 9.24003 8.94581 9.24003 9.24565V10.2269C9.24003 10.5248 9.32595 10.7333 9.46003 10.8732C9.64275 11.0648 9.89416 11.16 10.2244 11.16C10.5543 11.16 10.8141 11.0598 10.9888 10.8563C11.0656 10.7664 11.1148 10.6652 11.1363 10.5525C11.142 10.5016 11.16 10.3635 11.16 10.2H10.52V10.4557C10.52 10.6041 10.3767 10.7244 10.2 10.7244C10.0234 10.7244 9.88003 10.6038 9.88003 10.4557V9.88003H11.16V9.69565V9.23315C11.16 8.93395 11.0866 8.71491 10.9544 8.57315C10.7774 8.38147 10.5262 8.28003 10.2094 8.28003ZM10.2 8.74315C10.3767 8.74315 10.52 8.86374 10.52 9.0119V9.4369H9.88003V9.0119C9.88003 8.86342 10.0234 8.74315 10.2 8.74315ZM8.03065 8.83878C8.20505 8.83878 8.28003 8.94595 8.28003 9.28003V10.16C8.28003 10.4941 8.20505 10.6094 8.03065 10.6094C7.93113 10.6094 7.74115 10.5411 7.64003 10.44V9.04003C7.74115 8.94019 7.93113 8.83878 8.03065 8.83878Z" fill="#8B949E"/>
</svg>
