<svg width="14" height="14" viewBox="0 0 14 14" fill="none" xmlns="http://www.w3.org/2000/svg">
<path d="M6.99998 0.599976C3.46558 0.599976 0.599976 3.46558 0.599976 6.99998C0.599976 8.20062 0.937224 9.32001 1.51248 10.2802L0.657267 13.4L3.84373 12.5635C4.77563 13.0933 5.85144 13.4 6.99998 13.4C10.5344 13.4 13.4 10.5344 13.4 6.99998C13.4 3.46558 10.5344 0.599976 6.99998 0.599976ZM4.80935 4.01456C4.91335 4.01456 5.02021 4.01393 5.11248 4.01873C5.22661 4.02139 5.35083 4.02975 5.46977 4.29268C5.6111 4.60522 5.91884 5.38926 5.95831 5.46873C5.99778 5.54819 6.02574 5.64181 5.97081 5.74581C5.91854 5.85248 5.89136 5.91703 5.81456 6.01143C5.73509 6.10317 5.64802 6.2171 5.57602 6.28643C5.49655 6.3659 5.41449 6.45303 5.50623 6.61143C5.59796 6.76983 5.91654 7.28911 6.38748 7.70831C6.99281 8.24911 7.50354 8.4153 7.66248 8.49477C7.82141 8.57423 7.91345 8.56185 8.00518 8.45518C8.09958 8.35118 8.40164 7.99433 8.50831 7.83539C8.61231 7.67646 8.71848 7.70396 8.86248 7.75623C9.00861 7.80849 9.78792 8.19238 9.94685 8.27185C10.1058 8.35132 10.21 8.39065 10.25 8.45518C10.291 8.52185 10.2911 8.83922 10.1594 9.20935C10.0276 9.57895 9.38073 9.93637 9.0906 9.96143C8.7978 9.98863 8.52454 10.093 7.18748 9.56664C5.57468 8.93144 4.55757 7.27956 4.4781 7.17289C4.39863 7.06889 3.83227 6.31406 3.83227 5.53539C3.83227 4.75406 4.24193 4.37141 4.38539 4.21248C4.53153 4.05354 4.70268 4.01456 4.80935 4.01456Z" fill="#8B949E"/>
</svg>
