<svg width="12" height="13" viewBox="0 0 12 13" fill="none" xmlns="http://www.w3.org/2000/svg">
<path d="M10.5482 0.5H10.6877C11.4121 0.5 12 1.08797 12 1.81243V1.95192C11.9994 3.6921 11.3078 5.3608 10.0772 6.59117L9.73376 6.9354C9.49829 7.17089 9.25307 7.39738 8.9996 7.61337V10.0185C8.9996 10.4745 8.76338 10.8974 8.37492 11.1359L6.29466 12.4161C6.22158 12.4613 6.13912 12.4891 6.05361 12.4974C5.9681 12.5057 5.88182 12.4942 5.80142 12.464C5.72102 12.4337 5.64864 12.3854 5.58984 12.3227C5.53104 12.2601 5.4874 12.1848 5.46226 12.1026L4.74684 9.77625C4.70819 9.74791 4.67183 9.71657 4.63811 9.6825L2.81657 7.8616C2.78278 7.82784 2.75169 7.79148 2.72358 7.75286L0.397351 7.0374C0.315199 7.01226 0.239907 6.96861 0.177268 6.90981C0.114629 6.85101 0.0663127 6.77862 0.036036 6.69822C0.00575924 6.61781 -0.00567093 6.53153 0.00262482 6.44602C0.0109206 6.3605 0.0387211 6.27803 0.0838877 6.20494L1.36624 4.12455C1.48355 3.93359 1.64787 3.77589 1.84348 3.66652C2.0391 3.55715 2.25949 3.49976 2.48361 3.49984H4.88633C5.1023 3.24635 5.32878 3.00111 5.56425 2.76563L5.90846 2.42215C6.51772 1.81275 7.24105 1.32935 8.03714 0.999547C8.83322 0.669742 9.68648 0.499996 10.5482 0.5ZM6.70412 3.2171H6.70262L6.35916 3.56058C5.78922 4.13055 5.28153 4.75902 4.84433 5.43548L3.71946 7.17314L5.32653 8.7803L7.06407 7.65536C7.7405 7.21814 8.36892 6.71041 8.93811 6.14045L9.28232 5.79696C9.78716 5.292 10.1876 4.69254 10.4608 4.0328C10.7339 3.37307 10.8745 2.66598 10.8744 1.95192V1.81243C10.8744 1.7627 10.8546 1.71501 10.8195 1.67985C10.7843 1.64469 10.7366 1.62494 10.6869 1.62494H10.5474C9.1059 1.62507 7.72346 2.19777 6.70412 3.2171ZM2.67109 11.4194C2.12215 11.9684 0.92079 12.2031 0.417599 12.2804C0.390471 12.2847 0.362699 12.2827 0.336518 12.2743C0.310337 12.266 0.28648 12.2516 0.266866 12.2324C0.247625 12.2128 0.233257 12.1889 0.224921 12.1627C0.216585 12.1365 0.214513 12.1088 0.218872 12.0816C0.296113 11.5784 0.530836 10.377 1.08127 9.8295C1.18305 9.71412 1.30738 9.62082 1.4466 9.55535C1.58581 9.48987 1.73697 9.45361 1.89073 9.44881C2.0445 9.444 2.19763 9.47074 2.34066 9.52739C2.4837 9.58404 2.61361 9.66939 2.7224 9.77818C2.83118 9.88697 2.91653 10.0169 2.97317 10.1599C3.02982 10.303 3.05656 10.4561 3.05175 10.6099C3.04695 10.7637 3.01069 10.9148 2.94522 11.0541C2.87975 11.1933 2.78645 11.3176 2.67109 11.4194ZM7.87548 8.46832C7.80949 8.51332 7.74275 8.55682 7.676 8.59956L5.91371 9.74025L6.32466 11.0774L7.78624 10.1775C7.81352 10.1607 7.83605 10.1372 7.85167 10.1092C7.86729 10.0813 7.87549 10.0498 7.87548 10.0177V8.46832ZM2.75958 6.58667L3.90094 4.82427C3.94444 4.75677 3.98868 4.69077 4.03293 4.62478H2.48286C2.45083 4.62477 2.41933 4.63297 2.39137 4.64859C2.3634 4.66421 2.33991 4.68674 2.32313 4.71402L1.42323 6.17644L2.75958 6.58667ZM9.00035 4.2498C9.00035 4.4487 8.92134 4.63945 8.78071 4.7801C8.64007 4.92074 8.44933 4.99976 8.25044 4.99976C8.05155 4.99976 7.8608 4.92074 7.72017 4.7801C7.57953 4.63945 7.50052 4.4487 7.50052 4.2498C7.50052 4.0509 7.57953 3.86014 7.72017 3.7195C7.8608 3.57885 8.05155 3.49984 8.25044 3.49984C8.44933 3.49984 8.64007 3.57885 8.78071 3.7195C8.92134 3.86014 9.00035 4.0509 9.00035 4.2498Z" fill="#3D444D"/>
</svg>
